<?xml version="1.0" encoding="UTF-8" standalone="no"?>
<svg
   xmlns:dc="http://purl.org/dc/elements/1.1/"
   xmlns:cc="http://creativecommons.org/ns#"
   xmlns:rdf="http://www.w3.org/1999/02/22-rdf-syntax-ns#"
   xmlns:svg="http://www.w3.org/2000/svg"
   xmlns="http://www.w3.org/2000/svg"
   xmlns:xlink="http://www.w3.org/1999/xlink"
   xmlns:sodipodi="http://sodipodi.sourceforge.net/DTD/sodipodi-0.dtd"
   xmlns:inkscape="http://www.inkscape.org/namespaces/inkscape"
   id="svg2"
   height="328.56"
   width="1e3"
   version="1.1"
   inkscape:version="0.91 r13725"
   sodipodi:docname="Google_2015_logo_llx.svg"
   inkscape:export-filename="/var/www/html/srv/imagen/llx16/google.png"
   inkscape:export-xdpi="27.118334"
   inkscape:export-ydpi="27.118334">
  <metadata
     id="metadata13">
    <rdf:RDF>
      <cc:Work
         rdf:about="">
        <dc:format>image/svg+xml</dc:format>
        <dc:type
           rdf:resource="http://purl.org/dc/dcmitype/StillImage" />
        <dc:title></dc:title>
      </cc:Work>
    </rdf:RDF>
  </metadata>
  <defs
     id="defs11">
    <linearGradient
       inkscape:collect="always"
       id="linearGradient4324">
      <stop
         style="stop-color:#ffffff;stop-opacity:1;"
         offset="0"
         id="stop4326" />
      <stop
         style="stop-color:#ffffff;stop-opacity:0;"
         offset="1"
         id="stop4328" />
    </linearGradient>
    <filter
       inkscape:collect="always"
       style="color-interpolation-filters:sRGB"
       id="filter4320"
       x="-0.15567994"
       width="1.3113599"
       y="-0.15157491"
       height="1.3031498">
      <feGaussianBlur
         inkscape:collect="always"
         stdDeviation="0.32371278"
         id="feGaussianBlur4322" />
    </filter>
    <radialGradient
       inkscape:collect="always"
       xlink:href="#linearGradient4324"
       id="radialGradient4332"
       cx="556.802"
       cy="-160.15828"
       fx="556.802"
       fy="-160.15828"
       r="3.2721286"
       gradientTransform="matrix(1,0,0,1.0206522,0,3.3076244)"
       gradientUnits="userSpaceOnUse" />
  </defs>
  <sodipodi:namedview
     pagecolor="#ffffff"
     bordercolor="#666666"
     borderopacity="1"
     objecttolerance="10"
     gridtolerance="10"
     guidetolerance="10"
     inkscape:pageopacity="0"
     inkscape:pageshadow="2"
     inkscape:window-width="1280"
     inkscape:window-height="996"
     id="namedview9"
     showgrid="false"
     inkscape:zoom="0.34498561"
     inkscape:cx="455.54436"
     inkscape:cy="-186.70534"
     inkscape:window-x="1280"
     inkscape:window-y="0"
     inkscape:window-maximized="1"
     inkscape:current-layer="svg2" />
  <path
     id="path2998"
     fill="#4885ed"
     d="m246.11 116.18h-116.57v34.591h82.673c-4.0842 48.506-44.44 69.192-82.533 69.192-48.736 0-91.264-38.346-91.264-92.092 0-52.357 40.54-92.679 91.371-92.679 39.217 0 62.326 25 62.326 25l24.22-25.081s-31.087-34.608-87.784-34.608c-72.197-0.001-128.05 60.933-128.05 126.75 0 64.493 52.539 127.38 129.89 127.38 68.031 0 117.83-46.604 117.83-115.52 0-14.539-2.1109-22.942-2.1109-22.942z" />
  <path
     id="path3000"
     fill="#db3236"
     d="m341.6 91.129c-47.832 0-82.111 37.395-82.111 81.008 0 44.258 33.249 82.348 82.673 82.348 44.742 0 81.397-34.197 81.397-81.397 0-54.098-42.638-81.959-81.959-81.959zm0.47563 32.083c23.522 0 45.812 19.017 45.812 49.66 0 29.993-22.195 49.552-45.92 49.552-26.068 0-46.633-20.878-46.633-49.79 0-28.292 20.31-49.422 46.741-49.422z" />
  <path
     id="path3005"
     fill="#f4c20d"
     d="m520.18 91.129c-47.832 0-82.111 37.395-82.111 81.008 0 44.258 33.249 82.348 82.673 82.348 44.742 0 81.397-34.197 81.397-81.397 0-54.098-42.638-81.959-81.959-81.959zm0.47562 32.083c23.522 0 45.812 19.017 45.812 49.66 0 29.993-22.195 49.552-45.92 49.552-26.068 0-46.633-20.878-46.633-49.79 0-28.292 20.31-49.422 46.741-49.422z" />
  <path
     id="path3007"
     fill="#4885ed"
     d="m695.34 91.215c-43.904 0-78.414 38.453-78.414 81.613 0 49.163 40.009 81.765 77.657 81.765 23.279 0 35.657-9.2405 44.796-19.847v16.106c0 28.18-17.11 45.055-42.936 45.055-24.949 0-37.463-18.551-41.812-29.078l-31.391 13.123c11.136 23.547 33.554 48.103 73.463 48.103 43.652 0 76.922-27.495 76.922-85.159v-146.77h-34.245v13.836c-10.53-11.347-24.93-18.745-44.04-18.745zm3.178 32.018c21.525 0 43.628 18.38 43.628 49.768 0 31.904-22.056 49.487-44.104 49.487-23.406 0-45.185-19.005-45.185-49.184 0-31.358 22.619-50.071 45.66-50.071z" />
  <path
     id="path3011"
     fill="#db3236"
     d="m925.89 91.02c-41.414 0-76.187 32.95-76.187 81.57 0 51.447 38.759 81.959 80.165 81.959 34.558 0 55.768-18.906 68.426-35.845l-28.235-18.787c-7.3268 11.371-19.576 22.484-40.018 22.484-22.962 0-33.52-12.574-40.061-24.754l109.52-45.444-5.6859-13.318c-10.58-26.08-35.26-47.86-67.92-47.86zm1.4268 31.413c14.923 0 25.663 7.9342 30.224 17.447l-73.139 30.57c-3.1532-23.667 19.269-48.017 42.915-48.017z" />
  <path
     id="path3015"
     fill="#3cba54"
     d="m797.49 249.7h35.975v-240.75h-35.975z" />
  <g
     id="g4355"
     transform="matrix(0.81090516,0,0,0.81090516,-190.36845,240.93143)">
    <path
       inkscape:connector-curvature="0"
       id="path4334"
       d="m 544.58793,-144.64814 -36.95807,-20.65304 -44.20474,-16.30502 -61.9591,-8.69602 -43.84241,4.34801 0.36233,-11.95702 -11.95702,-17.39203 -18.47903,-2.17401 -10.87002,6.52202 -7.60901,20.2907 2.89867,11.59468 14.49336,5.79735 1.81167,21.3777 10.50768,30.07372 13.76869,13.40635 23.91404,9.058353 19.2037,2.536337 18.1167,1.087002 21.3777,-3.261006 33.69706,-12.319356 52.17609,-23.91404 z"
       style="fill:#fdc005;fill-opacity:1;fill-rule:evenodd;stroke:#000000;stroke-width:1px;stroke-linecap:butt;stroke-linejoin:miter;stroke-opacity:1" />
    <path
       inkscape:connector-curvature="0"
       id="path4253"
       d="m 335.41147,-123.43502 -15.27431,90.710728 84.23703,14.630521 54.7904,-8.707828 -0.93516,-39.276808 -6.23442,-38.653363 -30.54863,8.416455 -43.32917,-1.870324 -22.75561,-8.416461 z"
       style="fill:#ffffff;fill-rule:evenodd;stroke:#000000;stroke-width:1px;stroke-linecap:butt;stroke-linejoin:miter;stroke-opacity:1"
       sodipodi:nodetypes="cccccccccc" />
    <path
       sodipodi:nodetypes="ccccc"
       inkscape:connector-curvature="0"
       id="path4255"
       d="m 457.91771,-70.442497 c -47.53018,6.928073 -97.66507,2.939379 -135.91023,-18.703242 l 0.31172,19.326684 c 31.48085,26.778598 83.84186,24.186175 134.35162,24.937655 z"
       style="fill:#c83737;fill-rule:evenodd;stroke:none;stroke-width:1px;stroke-linecap:butt;stroke-linejoin:miter;stroke-opacity:1" />
    <path
       sodipodi:nodetypes="cccccccccscc"
       inkscape:connector-curvature="0"
       id="path4211"
       d="m 320.7606,-37.400102 c -0.34314,-66.105918 5.95239,-130.505748 10.5985,-193.578548 l -15.89776,-9.35163 c 5.37343,-2.67686 10.4885,4.25172 18.30851,2.3904 6.96176,-0.92383 12.13622,-7.51471 19.09798,-6.13105 l -0.62344,-25.56109 15.27431,4.05237 -4.98753,25.87281 c -7.06567,2.09639 -14.13133,4.64915 -21.197,4.36409 -5.62104,52.4379 -11.4684,86.03024 6.28647,123.74484 2.1514,4.56996 -9.54028,10.42715 -9.71541,16.217758 -9.09726,9.194725 -11.76906,46.495876 -17.14463,57.98005 z"
       style="fill:#000000;fill-rule:evenodd;stroke:#000000;stroke-width:1px;stroke-linecap:butt;stroke-linejoin:miter;stroke-opacity:1" />
    <path
       sodipodi:nodetypes="ccccccccccccccccccc"
       inkscape:connector-curvature="0"
       id="path4213"
       d="m 369.70075,-169.8814 c 18.03916,91.868763 101.10689,60.23879 172.69327,24.31421 -22.72937,-10.54812 -46.64647,-25.19186 -70.13716,-31.17207 -65.06307,-16.26391 -89.87701,-12.3633 -116.58354,-8.10473 1.0607,-7.89963 1.14669,-15.67742 -4.36409,-22.75561 -24.37786,-16.72582 -37.14189,-1.21991 -37.09477,20.88528 2.24144,11.63259 10.26339,12.14804 17.76808,11.84539 -13.39518,35.61111 5.48976,55.99502 28.05487,69.51371 23.69922,9.091555 61.8071,13.8491 91.9576,-0.31172 l 15.09821,-4.72012 c -44.3573,21.62156 -77.08359,17.096969 -108.3027,7.83733 -45.56809,-33.93165 -35.16641,-51.89172 -32.73067,-68.26683 -5.81878,2.04423 -12.88445,-4.67164 -17.76807,-14.65088 -0.37773,-47.37747 57.62245,-47.19562 51.4339,-3.74064 21.68287,-2.53715 49.34145,-4.07224 80.11223,0 27.4369,7.12967 50.56601,10.30085 107.54364,44.57606 l -80.42394,34.60099 c -25.6526,6.50891 -48.73799,5.3162 -68.57856,-5.61097 -16.02401,-13.27609 -27.06145,-28.56441 -28.6783,-54.2394 z"
       style="fill:#000000;fill-rule:evenodd;stroke:#000000;stroke-width:1px;stroke-linecap:butt;stroke-linejoin:miter;stroke-opacity:1" />
    <path
       sodipodi:nodetypes="ccc"
       inkscape:connector-curvature="0"
       id="path4215"
       d="m 383.31007,-171.35215 c -9.71338,-4.84713 -18.13204,-4.77427 -24.90744,1.54293 8.51525,-8.69578 12.99387,-7.59833 24.90744,-1.54293 z"
       style="fill:#000000;fill-rule:evenodd;stroke:#000000;stroke-width:1px;stroke-linecap:butt;stroke-linejoin:miter;stroke-opacity:1" />
    <ellipse
       ry="7.4942737"
       rx="4.0777669"
       cy="-168.04585"
       cx="410.75235"
       id="path4217"
       style="opacity:1;fill:#000000;fill-opacity:1;fill-rule:nonzero;stroke:none;stroke-width:1.25;stroke-miterlimit:4;stroke-dasharray:none;stroke-opacity:1" />
    <ellipse
       ry="6.684082"
       rx="3.6369274"
       cy="-169.95816"
       cx="427.39404"
       id="path4217-3"
       style="opacity:1;fill:#000000;fill-opacity:1;fill-rule:nonzero;stroke:none;stroke-width:1.25;stroke-miterlimit:4;stroke-dasharray:none;stroke-opacity:1" />
    <path
       sodipodi:nodetypes="ccc"
       inkscape:connector-curvature="0"
       id="path4234"
       d="m 451.19937,-140.7138 c -13.62937,-2.2044 -87.9211,30.33845 -102.93605,57.088734 15.84482,-25.561924 75.36514,-56.233134 102.93605,-57.088734 z"
       style="fill:#000000;fill-rule:evenodd;stroke:#000000;stroke-width:1px;stroke-linecap:butt;stroke-linejoin:miter;stroke-opacity:1" />
    <path
       sodipodi:nodetypes="ccc"
       inkscape:connector-curvature="0"
       id="path4234-6"
       d="m 451.51082,-133.99327 c -13.00326,2.00244 -70.80189,53.313598 -76.56162,81.97259 6.86092,-27.825255 51.81747,-73.10347 76.56162,-81.97259 z"
       style="fill:#000000;fill-rule:evenodd;stroke:#000000;stroke-width:0.95292407px;stroke-linecap:butt;stroke-linejoin:miter;stroke-opacity:1" />
    <rect
       transform="matrix(0.89487634,0.44631417,-0.44631417,0.89487634,0,0)"
       y="-313.58258"
       x="457.2912"
       height="53.420326"
       width="1.6437024"
       id="rect4276"
       style="opacity:1;fill:#333333;fill-opacity:1;fill-rule:nonzero;stroke:#333333;stroke-width:4.93336678;stroke-miterlimit:4;stroke-dasharray:none;stroke-opacity:1" />
    <path
       sodipodi:nodetypes="cccccccccccccccccccccccccccccccc"
       inkscape:connector-curvature="0"
       id="path4251"
       d="m 451.68329,-103.48489 c 6.66632,22.154885 4.80812,50.59049 5.9227,75.124687 l 4.05236,-0.623441 -1.5586,-24.937656 24.31422,33.665836 c 6.19986,3.948967 11.42185,2.030725 16.83291,1.246882 l 23.06734,-14.962593 c 6.22028,2.527842 11.70015,2.710982 20.26184,3.428928 3.12881,0.585987 2.55186,-3.46022 2.49377,-6.857856 -2.2453,-2.823534 -4.72034,-4.957855 -7.79302,-5.299252 1.56014,-0.308654 2.0109,-2.83607 2.80549,-4.67581 2.70158,2.60021 5.40315,4.555775 8.10473,4.67581 5.90377,-3.334458 2.68786,-4.063292 3.42893,-5.922693 -2.28595,-4.029651 -4.5719,-4.106302 -6.85785,-4.987531 1.98701,-0.130021 1.3611,-2.001991 0.93516,-3.740648 1.76642,3.225436 3.22111,-0.4161 4.98753,-1.246883 l 0.93516,-4.675811 c -8.41462,-6.84867 -15.73227,-8.212499 -23.37905,-11.221945 -2.10453,0.67457 -3.38075,3.005748 -4.67581,5.299252 1.55993,3.631443 3.85591,4.318655 6.23441,4.67581 l -0.62344,3.428928 c -2.03438,-3.412546 -5.69493,-3.572733 -9.35162,-3.740648 -2.08681,1.974231 -1.93421,3.948462 -2.49377,5.922693 3.42893,4.41726 6.85786,4.606058 10.28679,5.922693 l -1.55861,4.675811 c -2.89296,-5.616284 -4.3935,-2.87806 -6.54613,-4.052369 -1.77267,2.006785 -2.58833,4.33257 -1.87033,7.169576 l 1.55861,4.36409 c -9.94388,4.359619 -23.32041,14.113401 -28.05486,10.286783 -11.44292,-16.56952 -24.33794,-29.871824 -32.73068,-53.30424 -3.4847,-7.065668 -1.97909,-14.131335 -2.49376,-21.197003 z"
       style="fill:#000000;fill-rule:evenodd;stroke:#000000;stroke-width:1px;stroke-linecap:butt;stroke-linejoin:miter;stroke-opacity:1" />
    <path
       sodipodi:nodetypes="ccc"
       inkscape:connector-curvature="0"
       id="path4272"
       d="m 425.18703,-188.27292 -53.30424,-1.24688 c 13.51657,-28.46632 48.35583,-21.63217 53.30424,1.24688 z"
       style="fill:#000000;fill-rule:evenodd;stroke:#000000;stroke-width:1px;stroke-linecap:butt;stroke-linejoin:miter;stroke-opacity:1" />
    <ellipse
       transform="matrix(0.93412989,0.35693325,-0.35693325,0.93412989,0,0)"
       ry="40.378559"
       rx="24.95532"
       cy="-309.58231"
       cx="491.2674"
       id="path4274"
       style="opacity:0.43600003;fill:#f2f2f2;fill-opacity:1;fill-rule:nonzero;stroke:#333333;stroke-width:4.3499999;stroke-miterlimit:4;stroke-dasharray:none;stroke-opacity:1" />
    <path
       sodipodi:nodetypes="scsss"
       inkscape:connector-curvature="0"
       id="path4278"
       d="m 251.91653,-524.05164 c 0,6.78563 -2.75042,12.28646 -6.14323,12.28646 -5.21995,-6.34999 -5.15015,-5.96102 -8.83545,-12.21217 -3.44611,-5.84543 5.44264,-12.36074 8.83545,-12.36074 3.39281,0 6.14323,5.50083 6.14323,12.28645 z"
       style="opacity:1;fill:#000000;fill-opacity:1;fill-rule:nonzero;stroke:none;stroke-width:4.3499999;stroke-miterlimit:4;stroke-dasharray:none;stroke-opacity:1"
       transform="matrix(0.65200719,0.75821278,-0.75821278,0.65200719,0,0)" />
    <path
       sodipodi:nodetypes="scsss"
       inkscape:connector-curvature="0"
       id="path4278-5"
       d="m 557.72316,-158.77784 c -1.31949,1.13467 -2.84906,1.51966 -3.41639,0.85992 0.36192,-2.07686 0.29796,-1.99824 0.89728,-3.76015 0.56041,-1.64755 3.31368,-1.00857 3.88101,-0.34883 0.56733,0.65975 -0.0424,2.1144 -1.3619,3.24906 z"
       style="opacity:1;fill:url(#radialGradient4332);fill-opacity:1;fill-rule:nonzero;stroke:none;stroke-width:4.3499999;stroke-miterlimit:4;stroke-dasharray:none;stroke-opacity:1;filter:url(#filter4320)" />
  </g>
  <path
     style="fill:#4885ed"
     d="m 58.048828,186.14844 -19.55664,31.58984 c 22.650024,22.3624 54.167621,36.98047 91.455082,36.98047 25.06839,0 47.65744,-6.33492 66.19531,-17.77539 l -11.07617,-34.69141 c -15.61338,12.18814 -36.02129,17.79688 -55.82813,17.79688 -28.1241,0 -54.179631,-12.77072 -71.189452,-33.90039 z"
     id="path2998-3"
     inkscape:connector-curvature="0" />
</svg>
