<?xml version="1.0" encoding="UTF-8" standalone="no"?>
<!-- Created with Inkscape (http://www.inkscape.org/) -->

<svg
   xmlns:dc="http://purl.org/dc/elements/1.1/"
   xmlns:cc="http://creativecommons.org/ns#"
   xmlns:rdf="http://www.w3.org/1999/02/22-rdf-syntax-ns#"
   xmlns:svg="http://www.w3.org/2000/svg"
   xmlns="http://www.w3.org/2000/svg"
   xmlns:sodipodi="http://sodipodi.sourceforge.net/DTD/sodipodi-0.dtd"
   xmlns:inkscape="http://www.inkscape.org/namespaces/inkscape"
   width="24"
   height="24"
   viewBox="0 0 24 24"
   id="svg2"
   version="1.1"
   inkscape:version="0.91 r13725"
   sodipodi:docname="icons.svg"
   inkscape:export-filename="/srv/svn/xenial/lliurex-www/trunk/fuentes/install-lliurex-www/usr/share/lliurex-www/srv/icons/links.png"
   inkscape:export-xdpi="90"
   inkscape:export-ydpi="90">
  <defs
     id="defs4" />
  <sodipodi:namedview
     id="base"
     pagecolor="#ffffff"
     bordercolor="#666666"
     borderopacity="1.0"
     inkscape:pageopacity="0.0"
     inkscape:pageshadow="2"
     inkscape:zoom="4.3695312"
     inkscape:cx="-2.5297432"
     inkscape:cy="18.285127"
     inkscape:document-units="px"
     inkscape:current-layer="layer1"
     showgrid="false"
     units="px"
     inkscape:window-width="1280"
     inkscape:window-height="972"
     inkscape:window-x="0"
     inkscape:window-y="24"
     inkscape:window-maximized="1" />
  <metadata
     id="metadata7">
    <rdf:RDF>
      <cc:Work
         rdf:about="">
        <dc:format>image/svg+xml</dc:format>
        <dc:type
           rdf:resource="http://purl.org/dc/dcmitype/StillImage" />
        <dc:title></dc:title>
      </cc:Work>
    </rdf:RDF>
  </metadata>
  <g
     inkscape:label="Capa 1"
     inkscape:groupmode="layer"
     id="layer1"
     transform="translate(0,-1028.3622)">
    <g
       id="g3378"
       transform="matrix(0.33670231,0,0,0.33670231,-193.04709,883.27552)">
      <path
         id="XMLID_3_"
         class="st0"
         d="m 453.45446,196.6666 0,5.4 0,2.7 0,8.1 0,2.7 0,13.6 0,2.7 c 0,3 2.4,5.4 5.4,5.4 l 38,0 c 3,0 5.4,-2.4 5.4,-5.4 l 0,-2.7 0,-13.6 0,-10.8 0,-8.1 -48.8,0 z"
         inkscape:connector-curvature="0"
         style="fill:#16a085" />
      <path
         id="XMLID_4_"
         class="st1"
         d="m 453.45446,193.9666 0,5.4 0,2.7 0,8.1 0,2.7 0,13.5 0,2.8 c 0,3 2.4,5.4 5.4,5.4 l 38,0 c 3,0 5.4,-2.4 5.4,-5.4 l 0,-2.7 0,-13.6 0,-10.8 0,-8.1 -48.8,0 z"
         inkscape:connector-curvature="0"
         style="fill:#ecf0f1" />
      <path
         id="XMLID_5_"
         class="st2"
         d="m 453.45446,191.1666 0,5.4 0,2.7 0,8.1 0,2.8 0,13.5 0,2.7 c 0,3 2.4,5.4 5.4,5.4 l 38,0 c 3,0 5.4,-2.4 5.4,-5.4 l 0,-2.7 0,-13.5 0,-10.8 0,-8.2 -48.8,0 z"
         inkscape:connector-curvature="0"
         style="fill:#bdc3c7" />
      <path
         id="XMLID_6_"
         class="st1"
         d="m 453.45446,188.4666 0,5.4 0,2.7 0,8.1 0,2.7 0,13.5 0,2.7 c 0,3 2.4,5.4 5.4,5.4 l 38,0 c 3,0 5.4,-2.4 5.4,-5.4 l 0,-2.7 0,-13.4 0,-10.8 0,-8.1 -48.8,0 z"
         inkscape:connector-curvature="0"
         style="fill:#ecf0f1" />
      <path
         id="XMLID_7_"
         class="st0"
         d="m 458.85446,177.6666 c -3,0 -5.4,2.4 -5.4,5.4 l 0,2.7 0,10.8 0,5.4 0,2.7 0,8.1 0,2.7 0,13.7 0,2.7 c 0,3 2.4,5.4 5.4,5.4 l 5.4,0 0,-2.7 -4.1,0 c -2.2,0 -4.1,-1.9 -4.1,-4.1 0,-2.4 1.8,-4.1 4.1,-4.1 l 33.9,0 2.8,0 c 3,0 5.4,-2.4 5.4,-5.4 l 0,-2.7 0,-13.5 0,-10.8 0,-8.1 0,-2.7 c 0,-3 -2.4,-5.4 -5.4,-5.4 l -10.9,0 -27.1,0 z"
         inkscape:connector-curvature="0"
         style="fill:#16a085" />
      <path
         id="XMLID_8_"
         class="st3"
         d="m 467.05446,177.6666 0,48.8 2.7,0 24.4,0 2.7,0 c 3,0 5.4,-2.4 5.4,-5.4 l 0,-2.7 0,-13.6 0,-10.8 0,-8.1 0,-2.7 c 0,-3 -2.4,-5.4 -5.4,-5.4 l -10.9,0 -16.2,0 -2.7,0 z"
         inkscape:connector-curvature="0"
         style="fill:#1abc9c" />
      <polygon
         transform="translate(429.85446,162.1666)"
         id="XMLID_9_"
         class="st4"
         points="41.2,75.1 48,80.5 48,75.1 48,69.7 34.5,69.7 34.5,75.1 34.5,80.5 "
         style="fill:#e74c3c" />
      <rect
         id="XMLID_10_"
         x="464.35446"
         y="229.1666"
         class="st5"
         width="13.5"
         height="2.7"
         style="fill:#c0392b" />
    </g>
    <g
       id="g3458"
       transform="matrix(0.71053038,0,0,0.71053038,-67.122914,347.06852)">
      <circle
         id="XMLID_3_-3"
         class="st0"
         cx="110.96259"
         cy="976.20776"
         r="14.017532"
         style="fill:#2980b9" />
      <path
         id="XMLID_4_-6"
         class="st1"
         d="m 110.96254,962.19013 0,28.03497 c 7.72042,0 14.01754,-6.38331 14.01754,-14.01749 0,-7.76361 -6.29712,-14.01748 -14.01754,-14.01748 z"
         inkscape:connector-curvature="0"
         style="fill:#3498db" />
      <path
         id="XMLID_13_"
         class="st2"
         d="m 110.96254,962.19013 0,0.25886 0.51759,-0.12841 c 0.12942,-0.1284 0.17257,-0.1284 0.25877,-0.1284 l -0.47444,0 -0.30192,0 z m 3.14856,0.38803 c -0.0431,0 0.17257,0.38828 0.47444,0.77656 0.34504,0.64688 0.47444,0.90574 0.5607,0.90574 0.12943,-0.1284 0.81948,-0.51771 1.29392,-0.90574 -0.73322,-0.38828 -1.50958,-0.64714 -2.32906,-0.77656 l 0,0 z m 4.44248,2.67432 c -0.0431,0 -0.17257,0 -0.38818,0.2586 l -0.34504,0.38828 0.25878,0.25886 c 0.12943,0.2586 0.34504,0.38803 0.4313,0.51745 0.21571,0.25886 0.2588,0.25886 0.0431,0.64688 -0.0863,0.25886 -0.12943,0.38829 -0.12943,0.38829 0.0431,0.1284 0.12943,0.1284 0.60385,0.1284 l 0.69007,0 c 0.0431,0 0.12943,-0.25886 0.17257,-0.51746 l 0.0431,-0.38828 -0.47444,-0.38828 c -0.43129,-0.38803 -0.43129,-0.38803 -0.60381,-0.77631 -0.12943,-0.25886 -0.25881,-0.51746 -0.30192,-0.51746 l 0,0 z m -1.29394,1.03517 c -0.0863,0 -0.5607,0.90573 -0.5607,1.0349 0,0 0.12943,0.25886 0.30192,0.38829 0.17257,0.1284 0.30192,0.25885 0.30192,0.25885 0.0431,0 0.51758,-0.51771 0.60384,-0.64714 0.0431,-0.1284 -0.0431,-0.25859 -0.2588,-0.51745 -0.17257,-0.302 -0.34504,-0.51745 -0.38818,-0.51745 z m 4.09744,0.47431 0.0863,0.1284 c 0,0.1284 -0.30192,0.38828 -0.60381,0.64688 -0.51758,0.38828 -0.60384,0.51771 -0.86262,0.51771 -0.25881,0 -0.38818,0.1284 -0.77636,0.38803 -0.25878,0.25885 -0.51759,0.38828 -0.51759,0.51771 0,0 0.0863,0.1284 0.25881,0.38802 0.30192,0.25886 0.30192,0.38829 0.0863,0.77657 l -0.17257,0.1284 -0.47444,0 c -0.2588,0 -0.64698,0 -0.77636,-0.1284 -0.38818,0 -0.34506,0 -0.0431,0.90574 0.43132,1.29376 0.47444,1.38005 0.5607,1.38005 0.0431,0 0.5607,-0.51746 1.20768,-1.03517 0.64696,-0.51745 1.16452,-1.03516 1.20766,-1.03516 l 0.25878,0.1284 c 0.17257,0.1284 0.21571,0 0.5607,-0.2586 l 0.34506,-0.25886 0.34504,0.25886 c 0.81948,0.51745 0.94888,0.64688 0.992,1.03516 0.0863,0.64689 0.12942,0.77631 0.21571,0.77631 0.0431,0 0.5607,-0.64714 0.6901,-0.77631 0.0431,-0.1284 -0.0431,-0.25885 -0.47444,-0.90599 -0.30192,-0.38803 -0.47444,-0.77631 -0.47444,-0.90574 0,0 0.0431,0 0.12943,-0.1284 0.0863,0 0.17257,0.1284 0.43132,0.38829 -0.6901,-0.99203 -1.38018,-2.02719 -2.19968,-2.93293 l 0,0 z m 1.20766,4.61497 c -0.0863,0 -0.38816,0.38828 -0.34504,0.51771 l 0.21571,0.1284 0.17257,0 c 0.0863,0 0.12943,0 0.0863,-0.1284 -0.0431,-0.25886 -0.0863,-0.51771 -0.12943,-0.51771 z m -1.1214,0.51771 -1.03514,0 -1.03514,0.1284 -1.94088,1.50948 -1.89776,1.6389 0,1.50973 c 0,0.90574 0,1.63891 0.0431,1.63891 0.0431,0 0.30192,0.38828 0.64696,0.64688 0.34506,0.38828 0.64698,0.64714 0.77636,0.77657 0.17257,0.1284 0.21571,0.1284 1.72524,0.25859 l 1.46643,0.12841 0.6901,0.38828 c 0.34507,0.25885 0.64696,0.51745 0.69011,0.51745 0.0431,0 -0.12943,0.1284 -0.25878,0.25886 l -0.25881,0.25885 0.43133,0.51746 c 0.21571,0.25885 0.5607,0.64688 0.73321,0.77631 l 0.25878,0.38828 0,0.73317 0,0.38828 c 1.59584,-2.15661 2.54472,-4.96011 2.63101,-7.89304 0.0431,-1.16459 -0.12943,-2.28578 -0.34507,-3.45037 l -0.25878,-0.1284 c -0.0431,0 -0.21571,0.1284 -0.43132,0.25885 -0.21571,0.1284 -0.4313,0.38803 -0.47444,0.38803 -0.0431,0 -0.34504,-0.1284 -0.77633,-0.25886 l -0.77636,-0.2586 0,-0.38828 c 0,-0.25886 0,-0.38828 -0.25878,-0.64688 l -0.34507,-0.0873 0,0 z m -10.4808,11.08456 0,0.1284 0.0863,0 -0.0863,-0.1284 z"
         inkscape:connector-curvature="0"
         style="fill:#2ecc71" />
      <path
         id="XMLID_20_"
         class="st3"
         d="m 110.96254,962.19013 c -1.33706,0 -2.67412,0.21571 -3.88177,0.5606 0.12942,0.17205 0.12942,0.17205 0.25877,0.38828 0.64696,1.07831 0.73325,1.20773 0.90577,1.25088 0.12942,0 0.38818,0.0436 0.69007,0.0436 l 0.51758,0 0.38819,-0.86285 0.34503,-0.81945 0.77636,-0.2586 0,-0.302 z m -7.28911,2.02719 c -1.20766,0.73316 -2.32906,1.68204 -3.27794,2.76035 -1.638981,1.85462 -2.717262,4.1404 -3.191702,6.64216 0.215713,0 0.38818,-0.0437 0.776361,-0.0437 1.207658,0.0437 1.078281,0 1.466462,0.60374 0.215713,0.34514 0.258778,0.34514 0.603819,0.34514 0.43132,0.0437 0.38818,0 0.21571,-0.69002 -0.0863,-0.25886 -0.12943,-0.51771 -0.12943,-0.604 0,-0.0873 0.21571,-0.30174 0.73325,-0.69002 0.81947,-0.64688 0.77633,-0.5606 0.64695,-1.25088 -0.0431,-0.1284 0.0431,-0.2586 0.25878,-0.51745 0.30192,-0.302 0.30192,-0.25886 0.60385,-0.25886 l 0.30192,0 0.0431,-0.51745 c 0.0431,-0.302 0.0431,-0.56086 0.0863,-0.56086 0,0 0.81948,-0.47431 1.76836,-0.99202 0.94888,-0.51745 1.76838,-0.94888 1.8115,-0.99202 0.0863,-0.0873 -0.12943,-0.34488 -1.16451,-1.63891 -0.64699,-0.81945 -1.20769,-1.55261 -1.25081,-1.59576 l -0.30192,0 z m -2.5016,9.91996 c -0.0431,0 -0.0431,0.1284 -0.0431,0.25886 0,0.25885 0,0.302 0.25878,0.43142 0.34506,0.17206 0.38818,0.21572 0.34506,0.0873 -0.0431,-0.17206 -0.51758,-0.81971 -0.56072,-0.77657 z m -1.466441,0.90574 -0.215713,0.77631 c 0.04314,0.0437 0.388181,0.1284 0.776364,0.21571 0.43129,0.0873 0.6901,0.17206 0.77636,0.1284 l 0.21571,-0.56059 -1.552721,-0.5606 z m -1.638981,0.43143 -0.47444,0.25885 c -0.258778,0.1284 -0.517557,0.2586 -0.603816,0.2586 l -0.04314,0 c 0,0.604 0.04314,1.20774 0.129428,1.81147 l 0.258778,0.17206 0.431298,-0.0436 0.431323,0 0.258778,0.60399 c 0.129428,0.30174 0.301921,0.60374 0.345064,0.64688 0.04314,0.0437 0.431297,0.0437 0.776335,0.0437 l 0.646954,0 -0.0431,0.51771 c 0,0.51745 0,0.5606 -0.258776,0.94888 -0.172571,0.21571 -0.258804,0.51745 -0.258804,0.60374 0,0.0873 0.30192,0.90574 0.6901,1.85462 l 0.64696,1.72518 0.6901,0.34515 c 0.51758,0.25859 0.64696,0.34488 0.64696,0.43116 0,0.0437 -0.17257,0.90574 -0.25878,1.33717 1.29392,1.0783 2.76038,1.9409 4.39933,2.5015 1.50958,-1.55262 2.9329,-3.06236 3.14856,-3.27781 l 0.30192,-0.302 0.0863,-0.81945 c 0.0863,-0.47457 0.17257,-0.90574 0.17257,-0.94888 0,-0.0437 0.21571,-0.25886 0.43132,-0.51771 0.21572,-0.21572 0.34504,-0.43117 0.34504,-0.47431 l 0,-0.0873 c -0.0431,-0.0436 -0.60384,-0.47456 -1.29392,-0.94888 l -1.33706,-0.90573 -0.47444,-0.0437 c -0.34506,0 -0.51758,0 -0.5607,-0.0873 -0.0431,-0.0437 -0.12942,-0.34514 -0.17257,-0.69003 -0.0431,-0.34514 -0.0863,-0.64713 -0.12942,-0.69028 0,-0.0436 -0.34504,-0.0436 -0.73322,-0.0436 -0.38818,0 -0.73325,-0.0437 -0.77636,-0.0873 -0.0432,-0.0437 -0.0432,-0.30174 -0.0863,-0.64688 -0.0431,-0.302 -0.0863,-0.56085 -0.12943,-0.60374 -0.0431,-0.0436 -0.47444,-0.0873 -0.99199,-0.1284 -0.86262,-0.0436 -1.03514,-0.0436 -1.46646,-0.25885 l -0.51756,-0.25886 -0.6901,0.302 -0.73322,0.38803 -0.77636,-0.0437 c -0.862619,0 -0.819477,0.0873 -0.905762,-0.69002 -0.04314,-0.25886 -0.04314,-0.51746 -0.08628,-0.51746 -0.04314,-0.0436 -0.215713,-0.0436 -0.38818,-0.0873 l -0.301896,-0.0873 0.04314,-0.21572 c 0,-0.1284 0,-0.43142 0.04314,-0.60399 l 0.04314,-0.34489 -0.215713,-0.21571 -0.258804,-0.0873 z m 3.924922,0.47431 c -0.0431,0.0436 -0.0431,0.17205 -0.0863,0.25885 l -0.0431,0.21572 1.2508,0.51745 c 1.2508,0.47457 1.46644,0.51771 1.6821,0.302 0.0863,-0.0873 0.0431,-0.0873 -0.12943,-0.17206 -0.12943,-0.0437 -0.73324,-0.38802 -1.3802,-0.69002 -0.73322,-0.302 -1.2508,-0.47457 -1.29392,-0.43143 z"
         inkscape:connector-curvature="0"
         style="fill:#27ae60" />
    </g>
    <path
       style="fill:#333333"
       inkscape:connector-curvature="0"
       d="m 14.073445,1048.2664 c 0,-0.2569 -0.08564,-0.4854 -0.256867,-0.6564 l -1.997842,-1.9979 c -0.17124,-0.1713 -0.399558,-0.257 -0.656427,-0.257 -0.256866,0 -0.513733,0.1144 -0.684973,0.3141 0.02855,0.029 0.08564,0.084 0.17124,0.1711 0.114191,0.084 0.171239,0.1713 0.199786,0.1998 0.02855,0.029 0.08564,0.084 0.142743,0.1714 0.05709,0.084 0.11419,0.1712 0.11419,0.2567 0.02855,0.084 0.02855,0.1714 0.02855,0.2569 0,0.2569 -0.08564,0.4852 -0.256868,0.6564 -0.17124,0.1714 -0.399558,0.2571 -0.656425,0.2571 -0.08564,0 -0.171256,0 -0.2568685,-0.029 -0.08564,-0.029 -0.171238,-0.057 -0.256866,-0.1145 -0.08564,-0.057 -0.142743,-0.1144 -0.171238,-0.143 -0.02855,-0.029 -0.114191,-0.1145 -0.199788,-0.2 -0.08564,-0.1145 -0.17124,-0.1712 -0.17124,-0.1712 -0.199788,0.1998 -0.313947,0.4279 -0.313947,0.7135 0,0.2569 0.08564,0.4852 0.256867,0.6564 l 1.9692935,1.9978 c 0.171239,0.1714 0.399574,0.2569 0.656442,0.2569 0.256851,0 0.485186,-0.084 0.656425,-0.2569 l 1.427028,-1.3983 c 0.171256,-0.2 0.256867,-0.4282 0.256867,-0.6851 z m -6.764127,-6.7643 c 0,-0.2567 -0.085639,-0.4852 -0.2568668,-0.6564 l -1.9692938,-1.9977 c -0.1712395,-0.1713 -0.3995745,-0.2569 -0.6564426,-0.2569 -0.2568669,0 -0.4566368,0.084 -0.6564248,0.2569 l -1.4270282,1.3984 c -0.1712561,0.1712 -0.2568669,0.3996 -0.2568669,0.6564 0,0.2569 0.085639,0.4852 0.2568669,0.6564 l 1.9978422,1.9979 c 0.1712396,0.1713 0.3995578,0.2569 0.6564261,0.2569 0.2568668,0 0.5137337,-0.084 0.6849732,-0.2854 -0.028551,-0.029 -0.085639,-0.084 -0.1712395,-0.1714 -0.1141908,-0.084 -0.1712396,-0.171 -0.199788,-0.1997 -0.028552,-0.029 -0.085639,-0.084 -0.1427423,-0.1712 -0.057103,-0.086 -0.1141908,-0.1713 -0.1141908,-0.2569 -0.028551,-0.084 -0.028551,-0.171 -0.028551,-0.2569 0,-0.2567 0.085639,-0.485 0.2568669,-0.6564 0.1712395,-0.1712 0.3995579,-0.2569 0.6564262,-0.2569 0.085639,0 0.171238,0 0.2568668,0.029 0.085639,0.029 0.1712396,0.057 0.2568669,0.1145 0.085639,0.057 0.1427423,0.1144 0.1712395,0.143 0.028552,0.029 0.1141908,0.113 0.199788,0.1999 0.085639,0.1144 0.171238,0.1712 0.171238,0.1712 0.2283365,-0.2285 0.3139472,-0.4569 0.3139472,-0.7137 z m 8.619278,6.7643 c 0,0.7704 -0.285417,1.427 -0.827682,1.9406 l -1.427027,1.3985 c -0.542284,0.5423 -1.170178,0.7992 -1.940764,0.7992 -0.7706,0 -1.427043,-0.2855 -1.9693075,-0.8276 l -1.9693107,-1.9979 c -0.5422671,-0.5424 -0.7991339,-1.1702 -0.7991339,-1.9406 0,-0.7993 0.2854153,-1.4557 0.8562308,-1.998 l -0.8562308,-0.8563 c -0.5422656,0.5708 -1.2272388,0.8563 -1.9978408,0.8563 -0.7706033,0 -1.4270281,-0.2569 -1.9692936,-0.7992 l -1.9978589,-1.9978 c -0.542267,-0.5423 -0.7991339,-1.1987 -0.7991339,-1.9693 0,-0.7705 0.2854168,-1.4269 0.8276824,-1.9409 l 1.4270267,-1.3984 c 0.5422837,-0.5421 1.170178,-0.7991 1.940762,-0.7991 0.7706018,0 1.4270281,0.2853 1.9693102,0.8278 l 1.9692938,1.9977 c 0.5422837,0.5424 0.7991507,1.1703 0.7991507,1.9407 0,0.7992 -0.285416,1.4556 -0.8562311,1.9979 l 0.8562311,0.8564 c 0.542265,-0.5709 1.2272395,-0.8564 1.9978395,-0.8564 0.770586,0 1.427029,0.2569 1.969294,0.7992 l 1.997843,1.9978 c 0.542282,0.5709 0.79915,1.1988 0.79915,1.9694 z"
       class="st0"
       id="XMLID_7_-7" />
    <g
       id="g3428"
       transform="matrix(0.33826436,0,0,0.33826436,-186.94282,1025.6711)">
      <path
         id="XMLID_5_-5"
         class="st0"
         d="m 582.86837,-173.55852 0,3 11.5,11.5 -3,8.9 -8.9,3 -11.4,-11.6 c -0.2,0.9 -0.3,1.5 -0.3,2.7 0,0 0,0.3 0,0.6 0,0.3 0,0.6 0,0.9 0,8.9 7.3,16.2 16.2,16.2 1.4,0 2.6,-0.3 3.9,-0.6 l 6.4,6.2 11.9,12.1 8.9,8.9 c 1.5,1.5 3.6,2.4 5.9,2.4 4.6,0 8.2,-3.5 8.2,-8.3 0,-2.4 -0.9,-4.4 -2.3,-5.9 l -0.1,-0.3 -8.8,-8.6 -11.9,-12.1 -6.4,-6.2 c 0.3,-1.5 0.6,-2.7 0.6,-3.8 0,-9.2 -7.3,-16.2 -16.2,-16.2 l -0.8,0 -0.5,0 0,-2.7 -2.9,0 z m 41.1,51.4 c 2.4,0 4.4,1.8 4.4,4.4 0,2.4 -2,4.4 -4.4,4.4 -2.4,0 -4.4,-2.1 -4.4,-4.4 0,-2.6 1.9,-4.4 4.4,-4.4 z"
         inkscape:connector-curvature="0"
         style="fill:#7f8c8d" />
      <path
         id="XMLID_8_-3"
         class="st1"
         d="m 585.56837,-173.85852 c -0.9,0 -1.8,0 -2.7,0.3 l 11.5,11.5 -3,8.9 -8.9,3 -11.4,-11.6 c -0.2,0.9 -0.3,1.5 -0.3,2.7 0,0 0,0.3 0,0.6 0,0.3 0,0.6 0,0.9 0,8.9 7.3,16.2 16.2,16.2 1.4,0 2.6,-0.3 3.9,-0.6 l 6.4,6.2 11.9,12.1 8.9,8.9 c 1.5,1.5 3.6,2.4 5.9,2.4 4.6,0 8.2,-3.5 8.2,-8.3 0,-2.4 -0.9,-4.4 -2.3,-5.9 l -0.1,-0.3 -8.8,-8.6 -11.9,-12.1 -6.4,-6.2 c 0.3,-1.5 0.6,-2.7 0.6,-3.8 0,-9.2 -7.3,-16.2 -16.2,-16.2 l -0.8,0 -0.7,0 z m 38.4,48.7 c 2.4,0 4.4,1.8 4.4,4.4 0,2.4 -2,4.4 -4.4,4.4 -2.4,0 -4.4,-2.1 -4.4,-4.4 0,-2.6 1.9,-4.4 4.4,-4.4 z"
         inkscape:connector-curvature="0"
         style="fill:#95a5a6" />
      <path
         id="XMLID_9_-5"
         class="st0"
         d="m 600.26837,-147.25852 -5.8,5.6 -0.1,0.3 c 0,0 0,0 0,0.3 0.2,0.6 0.2,1.5 0,2.7 l 2.9,2.7 6,6.2 c 1.1,-0.3 2.1,-0.3 3,0 l 5.9,-5.9 -1.5,-1.5 -3,-3 4.4,-4.4 -3,-3 -4.4,4.4 -4.4,-4.4 z"
         inkscape:connector-curvature="0"
         style="fill:#7f8c8d" />
      <rect
         id="XMLID_10_-6"
         x="-328.7193"
         y="526.52783"
         transform="matrix(-0.70710678,-0.70710678,0.70710678,-0.70710678,0,0)"
         class="st2"
         width="4.1999598"
         height="37.599636"
         style="fill:#bdc3c7" />
      <rect
         id="XMLID_11_"
         x="526.49756"
         y="326.62143"
         transform="matrix(0.70710678,-0.70710678,0.70710678,0.70710678,0,0)"
         class="st1"
         width="37.599636"
         height="2.0999799"
         style="fill:#95a5a6" />
      <polygon
         id="XMLID_12_"
         class="st1"
         points="77.5,15.5 70.2,19.9 76.1,25.8 80.5,18.5 "
         style="fill:#95a5a6"
         transform="translate(555.26837,-189.35852)" />
      <path
         id="XMLID_13_-2"
         class="st3"
         d="m 600.26837,-150.25852 -5.9,5.9 c 1,2.4 -1.2,7.1 -3,8.9 -1.7,1.5 -6.3,3.8 -8.9,3 l -11.7,11.8 11.8,11.8 11.8,-11.8 c -1,-2.7 1.2,-7.4 3,-8.9 1.7,-1.8 6.3,-4.1 8.9,-3 l 5.9,-5.9 -11.9,-11.8 z"
         inkscape:connector-curvature="0"
         style="fill:#f39c12" />
      <path
         id="XMLID_14_"
         class="st4"
         d="m 600.26837,-150.25852 -5.9,5.9 c 1,2.4 -1.2,7.1 -3,8.9 -1.7,1.5 -6.3,3.8 -8.9,3 l -11.7,11.8 5.9,5.9 29.6,-29.6 -6,-5.9 z"
         inkscape:connector-curvature="0"
         style="fill:#f1c40f" />
      <path
         id="XMLID_18_"
         class="st5"
         d="m 594.46837,-144.55852 -0.1,0.2 c 0,0 0,0 0,0.3 0.1,-0.3 0.1,-0.3 0.1,-0.5 z m 16.2,4.7 -4.4,4.4 c -2.6,-1.2 -7.1,1.2 -8.9,3 -1.7,1.5 -3.7,5.9 -3,8.6 0.5,-2.4 1.8,-4.7 3,-5.6 1.7,-1.8 6.3,-4.1 8.9,-3 l 5.9,-5.9 -1.5,-1.5 z m -16.4,16.2 -11.7,11.8 -10.3,-10.3 -1.5,1.5 11.8,11.8 11.8,-11.8 c -0.3,-0.9 -0.3,-2.1 -0.1,-3 z"
         inkscape:connector-curvature="0"
         style="fill:#e67e22" />
    </g>
  </g>
</svg>
